# xmcd CD database file
#
# Track frame offsets:
#	150
#	13490
#	28997
#	43065
#	57107
#	70715
#	83402
#	97287
#	111965
#	126567
#	138745
#	153587
#	166672
#	180565
#	192725
#	208492
#	221597
#	237417
#	268485
#	280632
#	294155
#	307967
#	321947
#	340170
#
# Disc length: 4715 seconds
#
# Revision: 0
# Processed by: cddbd v1.5.1PL0 Copyright (c) Steve Scherf et al.
# Submitted via: CDex 1.51
#
DISCID=7e126918
DTITLE=Teddy Wilson - The Noble Art of Teddy Wilson
DYEAR=2002
DGENRE=Jazz
TTITLE0=Liza, All The Clouds'll Roll Away
TTITLE1=Once Upon A Time
TTITLE2=Blue Lou
TTITLE3=Squeeze Me (with Mildred Bailey)
TTITLE4=Don't Blame Me
TTITLE5=Someday, Sweetheart
TTITLE6=Sweet Lorraine
TTITLE7=More Than You Know
TTITLE8=All My Life (with Ella Fitzgerald)
TTITLE9=Between The Devil And The Deep Blue Sea
TTITLE10=Blues In C Sharp Minor
TTITLE11=Sailin'
TTITLE12=I'll Never Be the Same (with Billie Holiday)
TTITLE13=That Old Feeling
TTITLE14=The Man I Love
TTITLE15=You Can't Stop Me From Dreaming
TTITLE16=Out Of Nowhere (with Lena Horne)
TTITLE17=Just A Mood (Blue Mood)
TTITLE18=China Boy
TTITLE19=Oh, Lady Be Good
TTITLE20=September Song (with Sarah Vaughan)
TTITLE21=Seventy One
TTITLE22=Rose Room
TTITLE23=I Can't Get Started
EXTD=YEAR: 2002
EXTT0=
EXTT1=
EXTT2=
EXTT3=
EXTT4=
EXTT5=
EXTT6=
EXTT7=
EXTT8=
EXTT9=
EXTT10=
EXTT11=
EXTT12=
EXTT13=
EXTT14=
EXTT15=
EXTT16=
EXTT17=
EXTT18=
EXTT19=
EXTT20=
EXTT21=
EXTT22=
EXTT23=
PLAYORDER=
